<?xml version="1.0" encoding="UTF-8"?><svg id="b" xmlns="http://www.w3.org/2000/svg" viewBox="0 0 270.16 316.88"><g id="c"><g id="d"><g><path d="M175.48,240.62c-4.64,8.29-9.23,16.61-13.95,24.86-3.1,5.41-7.97,7.27-13.69,5.48-6.34-1.98-9.11-7.32-7.42-14.58,2.74-11.77,5.69-23.49,8.29-35.28,3.29-14.91,6.41-29.85,6.39-45.25,0-12-2.91-23.21-8.89-33.59-3.41-5.92-7.02-11.72-10.46-17.45-.57,.04-.91-.03-1.01,.09-15.68,20.69-23.61,43.47-18.22,69.63,4.24,20.55,8.72,41.05,13.2,61.55,1.98,9.05-3.01,15.77-11.77,15.47-4.33-.15-7.29-2.43-9.34-6.1-4.05-7.24-8.11-14.49-12.18-21.73-.59-1.04-1.22-2.06-2.34-2.94,.81,5.45,1.61,10.89,2.42,16.34,.21,1.45,.46,2.9,.61,4.35,.69,6.5-2.61,11.48-8.6,13.04-6.58,1.72-12.42-.98-14.89-7.34-4.81-12.4-9.8-24.75-13.96-37.37-6.03-18.3-11.26-36.87-17.13-55.22-1.54-4.81-3.75-9.54-6.37-13.86-11.09-18.26-22.53-36.31-33.68-54.53-4.23-6.92-3.01-12.5,3.15-17.8,.83-.72,1.43-1.9,1.74-2.99,1.72-5.93,6.42-9.32,12.61-8.93,2.42,.15,4.84,.33,8.07,.56-5.56-6.94-7.86-14.08-5.3-22.22,1.61-5.11,4.73-9.05,9.27-11.85,10.02-6.17,20.52-3.56,30.33,7.67,5.25-11.4,10.47-22.69,15.6-34.01,.35-.78,.13-1.87,.01-2.8-.7-5.91,2.18-10.99,7.38-12.94,5.74-2.14,11.04-.22,14.58,5.09,3.99,5.99,8.12,11.89,12.2,17.81,.26,.37,.68,.63,1.35,1.23,1.02-5.83,3.28-10.69,7.63-14.35,4.41-3.71,9.5-5.41,15.25-5.07,10.44,.63,17.85,7.58,20.35,19.6,1.61-1.91,3.11-3.41,4.29-5.14,3.03-4.43,5.98-8.92,8.84-13.47,3.58-5.7,8.86-7.87,14.63-5.82,5.57,1.98,8.41,6.99,7.66,13.42-.09,.81-.22,1.76,.1,2.45,5.14,11.31,10.36,22.58,15.61,33.99,10-11.66,21.5-14.09,31.57-6.86,10.44,7.49,11.61,18.74,3.09,33.19,2.68-.17,5.03-.3,7.38-.47,6.43-.46,11.13,2.86,12.94,8.96,.35,1.17,1.14,2.39,2.07,3.18,5.55,4.64,6.93,10.69,3.12,16.96-10.72,17.63-21.48,35.24-32.56,52.64-3.85,6.05-6.87,12.25-8.74,19.18-8.17,30.31-18.08,60.05-29.92,89.13-2.64,6.48-7.76,9.44-14.13,8.24-6.43-1.21-10.43-6.43-9.61-13,.87-7.01,2.01-13.99,3.04-20.99l-.61-.17h0Zm-95.35-27.96c.88-.91,1.98-2.8,3.61-3.53,2.39-1.08,4.5,.19,5.8,2.49,3.7,6.6,7.39,13.21,11.07,19.82,5.17,9.27,10.29,18.58,15.58,27.79,.64,1.12,2.21,1.71,3.34,2.54,.23-1.41,.47-2.81,.67-4.22,.03-.22-.15-.46-.21-.7-5.16-22.72-11.46-45.21-13.91-68.48-1.87-17.8,.25-34.89,9.42-50.61,4.24-7.27,8.77-14.38,13.2-21.55,1.12-1.81,2.52-3.64,.31-5.49-2.32-1.94-3.76,.05-5.22,1.5-8.07,8-16.08,16.06-24.23,23.99-4.16,4.05-8.94,7.24-14.79,8.36-13.51,2.6-25.82-.66-35.75-9.8-9.57-8.81-18.07-18.81-26.88-28.44-2.54-2.78-4.36-6.21-6.86-9.03-.76-.86-3.06-1.32-3.99-.79-.83,.47-.98,2.56-.97,3.93,0,.85,.84,1.72,1.36,2.55,10.68,17.22,21.25,34.51,32.12,51.61,3.71,5.84,6.64,11.87,8.43,18.55,8.06,30.08,17.85,59.59,29.5,88.48,.74,1.83,1.1,4.46,4.06,3.67,3.09-.83,1.73-3.42,1.48-5.23-.96-7.14-2.17-14.24-3.25-21.36-1.27-8.33-2.5-16.66-3.9-26.03v-.02Zm102.34,50.48c.43,.47,1.13,1.94,1.99,2.04,1,.11,2.24-.86,3.18-1.6,.5-.39,.6-1.3,.87-1.98,11.28-28.11,20.95-56.76,28.76-86.02,2.23-8.37,5.87-15.87,10.56-23.15,10.77-16.73,20.99-33.8,31.44-50.73,1.16-1.88,2.22-3.84-.29-5.35-2.42-1.46-3.74,.3-5.03,2.09-2.57,3.56-5.12,7.16-7.92,10.55-8.56,10.37-17.13,20.77-28.3,28.53-14.55,10.11-35.23,12.51-50.38-4.27-6.71-7.43-14.11-14.23-21.19-21.31-1.42-1.42-2.86-3-4.98-1.21-2.02,1.71-.95,3.47,.14,5.2,3.65,5.78,7.28,11.58,10.9,17.38,9.29,14.85,13.42,30.99,12.39,48.51-1.01,17.15-4.75,33.82-8.59,50.47-2.03,8.8-4.19,17.56-6.16,26.38-.21,.93,.54,2.07,.84,3.11,.95-.52,2.04-.89,2.81-1.61,.68-.64,1-1.66,1.48-2.51,8.45-15.13,16.93-30.25,25.34-45.41,1.5-2.7,3.56-4.21,6.57-3.07,2.87,1.08,3.29,3.52,2.78,6.38-.83,4.69-1.44,9.41-2.15,14.12-1.64,10.86-3.28,21.73-5.06,33.47h0Zm-32.28-160.85c.15-1.11,.27-1.92,.36-2.74,1.18-11.46,2.93-22.87,7.53-33.47,7.35-16.89,15.27-33.52,22.96-50.26,.51-1.11,1.3-2.16,1.5-3.31,.13-.75-.37-2-.99-2.36-.61-.36-1.98-.21-2.54,.27-.88,.76-1.4,1.97-2.01,3.02-6.1,10.4-13.37,19.85-22.61,27.69-11.67,9.89-27.06,10.19-38.39-.06-6.11-5.53-11.42-12.02-16.7-18.39-2.86-3.45-4.82-7.63-7.41-11.33-.56-.8-2.1-.92-3.19-1.35-.22,1.14-.9,2.46-.56,3.4,.92,2.51,2.3,4.84,3.48,7.26,12.65,25.99,26.75,51.48,28.2,81.87,5.15-2.82,9.91-2.98,14.58-.01,.39,.25,1.26,.15,1.69-.12,4.58-2.91,9.24-2.51,14.11-.1h-.01ZM186.34,27.37c-3.08,4.03-3.61,7.85-2.34,12.76,3.34,12.86,6.05,25.9,8.61,38.95,1.45,7.39,2.12,14.93,3.17,22.56,14.31-.62,22.62,6.39,25.53,21.57,8.08-9.74,15.47-18.65,22.86-27.55,2.6-3.12,5.23-6.22,7.96-9.47-.7,0-1.72-.02-2.75,0-3.42,.07-6.85,.35-10.25,.2-17.52-.76-30.49-8.04-37.26-25.12-4.18-10.54-9.3-20.7-14.01-31.02-.44-.96-.99-1.88-1.53-2.88h0Zm-102.49-.08c-.6,1.21-1.16,2.25-1.66,3.33-5.39,11.76-10.74,23.54-16.17,35.28-4.55,9.83-12.02,16.46-22.69,18.44-7.13,1.33-14.51,1.34-21.78,1.91-1.26,.1-2.53,.01-3.56,.01,2.54,2.92,5,5.68,7.39,8.5,7.11,8.38,14.19,16.78,21.31,25.15,.65,.77,1.51,1.36,2.39,2.14,4.45-15.6,8.67-19,25.44-20.6,.1-.4,.28-.86,.31-1.32,1.65-20.41,5.97-40.33,11.33-60.02,1.33-4.9,.75-8.71-2.33-12.82h.02Zm10.45,20.98c-.45,.86-.76,1.25-.86,1.69-4.08,16.97-7.66,34.02-9.13,51.46-.26,3.07,.37,5.11,2.54,7.37,2.04,2.12,3.82,4.97,4.49,7.8,.99,4.14,.89,8.54,1.26,12.92,.82-.74,2.01-1.72,3.1-2.8,4.43-4.38,8.95-8.68,13.16-13.25,1.14-1.24,1.97-3.4,1.86-5.05-.43-6.2-1.14-12.4-2.08-18.54-2.22-14.59-7.95-27.97-14.35-41.58v-.02Zm82.36,.47c-10.73,19.03-16.42,39.17-17.25,60.6-.05,1.25,.67,2.84,1.56,3.77,4.65,4.85,9.45,9.54,14.23,14.26,.87,.86,1.85,1.6,3.5,3.01-2.28-9.87-.19-17.44,6.51-23.69,.69-.64,.89-2.2,.76-3.27-1.01-8.72-1.84-17.48-3.33-26.13-1.65-9.57-3.95-19.03-5.97-28.54h0Zm-121.48,12.76c.1-6.54-5.08-11.97-11.61-12.19-6.55-.22-12.21,5.31-12.23,11.96-.02,6.48,5.37,11.96,11.82,11.99,6.52,.04,11.93-5.25,12.03-11.76h0Zm159.87-.18c0,6.53,5.29,11.85,11.85,11.94,6.43,.09,11.91-5.31,11.99-11.81,.08-6.65-5.45-12.22-12.05-12.14-6.48,.08-11.81,5.51-11.79,12.01h0ZM82.98,123.13c0-6.51-5.3-11.81-11.86-11.87-6.57-.05-11.96,5.14-12.09,11.65-.13,6.58,5.29,12,12.09,12.1,6.39,.09,11.85-5.38,11.86-11.88Zm116.21-11.87c-6.57,0-11.91,5.26-11.96,11.76-.05,6.48,5.38,12.02,11.75,11.99,6.8-.04,12.24-5.39,12.19-11.99-.05-6.51-5.4-11.77-11.98-11.76ZM146.97,27.18c.08-6.65-4.99-11.9-11.6-12.02-6.65-.13-12.02,4.97-12.12,11.5-.11,6.84,5.05,12.19,11.78,12.22,6.63,.03,11.87-5.1,11.94-11.7Z" fill="#a2eca2"/><path d="M135.37,307.27c1.46,0,2.93-.11,4.37,.02,2.68,.25,4.2,1.81,4.32,4.51,.12,2.73-1.38,4.57-3.97,4.83-3.25,.33-6.57,.33-9.82,.03-2.77-.25-4.34-2.14-4.13-5.04,.19-2.7,1.82-4.17,4.49-4.35,1.57-.11,3.16-.02,4.74-.02h0v.02Z" fill="#a2eca2"/><path d="M164.87,314.69c-3.79,.14-5.7-1.22-6.12-4-.43-2.84,1.19-4.7,3.86-5.33,2.83-.67,5.73-1.16,8.63-1.4,2.57-.22,4.55,.98,5.07,3.68,.54,2.79-.61,4.87-3.4,5.56-2.94,.73-5.96,1.12-8.04,1.49h0Z" fill="#a2eca2"/><path d="M105.48,314.72c-2.2-.4-5.23-.79-8.17-1.51-2.79-.68-3.96-2.73-3.43-5.54,.51-2.71,2.49-3.92,5.05-3.72,2.9,.23,5.79,.74,8.63,1.4,2.68,.62,4.31,2.48,3.9,5.31-.4,2.78-2.31,4.14-5.98,4.05h0Z" fill="#a2eca2"/><path d="M68.04,294.94c4.14,1.66,7.81,2.73,10.99,4.62,1.11,.66,1.86,3.76,1.25,5.02-.7,1.46-3.22,3.14-4.69,2.93-3.3-.48-6.68-1.68-9.54-3.4-1.26-.76-2.05-3.61-1.75-5.27,.27-1.45,2.37-2.57,3.73-3.91h.01Z" fill="#a2eca2"/><path d="M193.5,308.41c-1.39-1.5-3.52-2.77-3.77-4.34-.25-1.6,.88-4.25,2.24-5.08,2.64-1.62,5.8-2.74,8.86-3.14,1.56-.2,4.21,1.23,4.85,2.63,.64,1.39-.02,4.64-1.17,5.34-3.15,1.93-6.86,2.95-11.02,4.6h0Z" fill="#a2eca2"/><path d="M43.27,281.82c3.79,2.64,7.25,4.63,10.08,7.29,.81,.76,.41,4-.56,5.15-.95,1.12-3.61,1.77-5.05,1.28-2.69-.93-5.35-2.51-7.43-4.46-1.12-1.04-1.69-3.58-1.26-5.1,.42-1.47,2.42-2.49,4.22-4.16Z" fill="#a2eca2"/><path d="M231.73,288.35c-.4,.63-.9,2.15-1.95,2.94-2.22,1.66-4.59,3.47-7.18,4.18-1.64,.45-4.34-.41-5.59-1.66-1.83-1.82-1.28-4.48,.81-6.09,2.2-1.7,4.61-3.21,7.13-4.38,3.26-1.51,6.76,.82,6.79,5.01h-.01Z" fill="#a2eca2"/><path d="M24.18,203.65c-3.41,0-6-3.83-4.16-6.71,1.61-2.51,3.77-4.85,6.14-6.65,2.77-2.1,6.72,.08,7.04,3.51,.3,3.23-5.77,9.86-9.02,9.85Z" fill="#a2eca2"/><path d="M237.03,193.05c.53-.62,1.36-2.39,2.68-2.91,1.34-.53,3.57-.37,4.71,.45,2.13,1.54,4.06,3.6,5.46,5.82,.74,1.18,.78,3.49,.1,4.7-.69,1.22-2.61,2.27-4.09,2.42-3.02,.31-9.05-6.41-8.86-10.47h0Z" fill="#a2eca2"/><path d="M23.36,266.43c3.95,.06,10.23,6.53,9.74,9.56-.24,1.46-1.36,3.34-2.6,3.93-1.26,.6-3.56,.4-4.7-.42-2.13-1.53-4.06-3.58-5.47-5.8-.75-1.18-.75-3.42-.13-4.71,.62-1.3,2.45-2.02,3.17-2.56h-.01Z" fill="#a2eca2"/><path d="M250.79,270.34c-.03,3.79-6.06,10.33-8.9,10.06-1.48-.14-3.51-1.11-4.11-2.3-.67-1.34-.56-3.66,.19-5,1.17-2.06,2.94-4.02,4.92-5.3,1.38-.89,3.74-1.11,5.31-.59,1.27,.42,2.03,2.4,2.58,3.12h0Z" fill="#a2eca2"/><path d="M13.13,222.36c-3.67-.1-5.77-2.67-4.92-5.81,.63-2.31,1.53-4.73,2.97-6.58,.92-1.18,3.28-2.19,4.59-1.83,1.52,.42,3.88,2.76,3.64,3.69-.87,3.39-2.57,6.59-4.2,9.74-.32,.61-1.71,.67-2.09,.8h.01Z" fill="#a2eca2"/><path d="M255.69,207.79c.49,.19,1.88,.3,2.19,.93,1.56,3.18,3.13,6.42,4.03,9.82,.24,.89-1.76,3.23-2.98,3.43-1.61,.27-4.13-.38-5.06-1.57-1.6-2.02-2.57-4.7-3.24-7.25-.71-2.7,1.8-5.34,5.07-5.37h0Z" fill="#a2eca2"/><path d="M20.42,257.67c-1.28,1.51-2.18,3.52-3.56,3.94-1.55,.47-4.38,.13-5.16-.95-1.72-2.37-2.92-5.33-3.48-8.22-.24-1.24,1.3-3.58,2.6-4.17,1.32-.6,4.11-.27,4.9,.72,1.91,2.4,3.02,5.43,4.69,8.68h0Z" fill="#a2eca2"/><path d="M262.99,252.08c-1.68,3.38-2.63,6.41-4.53,8.61-.95,1.09-4.1,1.46-5.44,.7-1.32-.74-2.3-3.38-2.15-5.08,.19-2.18,1.23-4.63,2.69-6.26,1.14-1.28,3.63-2.26,5.23-1.95,1.53,.3,2.7,2.46,4.2,3.97h0Z" fill="#a2eca2"/><path d="M14.32,235.2c-.05,1.09,.3,2.47-.23,3.21-1.1,1.52-2.67,3.74-4.07,3.76-1.65,.02-4.26-1.66-4.79-3.18-.82-2.37-.83-5.42-.03-7.8,.52-1.54,2.99-3.12,4.77-3.35,2.29-.3,3.99,1.52,4.22,4.08,.1,1.08,.02,2.18,.02,3.27h.11Z" fill="#a2eca2"/><path d="M255.99,234.82c0-.97-.08-1.95,0-2.91,.24-2.57,1.85-4,4.26-4.21,2.63-.22,4.53,1.18,5,3.78,.36,2,.33,4.12,.18,6.16-.22,2.94-1.89,4.86-4.91,4.76-2.99-.1-4.55-2-4.59-5.04,0-.85,0-1.7,0-2.55h.05Z" fill="#a2eca2"/></g></g></g></svg>