<svg width="833" height="547" viewBox="0 0 833 547" fill="none" xmlns="http://www.w3.org/2000/svg">
<path d="M821.696 429.194C842.676 446.413 792.823 482.845 732.018 546.734C732.38 510.314 730.385 437.377 676.83 427.756L652.586 427.515C661.658 426.317 669.701 426.475 676.83 427.756L821.696 429.194Z" fill="#A2ECA2"/>
<path d="M3.91562 50.1639C4.18967 22.551 26.7965 0.388479 54.4094 0.662526L782.927 7.89277C810.54 8.16682 832.702 30.7736 832.428 58.3865L828.761 427.91C828.487 455.522 805.88 477.685 778.267 477.411L49.7496 470.181C22.1367 469.907 -0.0257928 447.3 0.248254 419.687L3.91562 50.1639Z" fill="#A2ECA2"/>
</svg>
