<svg width="206" height="131" viewBox="0 0 206 131" fill="none" xmlns="http://www.w3.org/2000/svg">
<path d="M171.632 105.763C111.375 161.479 -0.64201 117.594 0.0027715 45.5839C0.379847 3.4213 50.3964 -11.7829 99.1599 9.68347C48.2243 -8.84632 15.7518 9.29565 15.7518 38.3732C15.7518 76.8877 69.6458 113.783 111.174 101.488L79.811 80.6419H83.758L130.763 103.24C84.2608 130.806 -4.78766 84.9399 10.7867 27.3577C-10.5292 90.03 89.4729 149.663 151.788 105.303L86.7866 80.6419H89.7972L171.632 105.763ZM98.8944 40.903C104.885 40.903 109.723 35.6144 110.4 28.4482C110.782 24.5086 109.829 21.0792 107.746 18.7795C106.078 16.9503 103.809 15.9027 101.192 15.9027C95.1574 15.9027 90.4632 21.0351 89.782 28.2666C89.3919 32.3052 90.3283 35.7961 92.4139 38.0746C94.0397 39.8679 96.2837 40.903 98.8944 40.903ZM113.005 17.7357C115.607 20.5771 116.813 24.4031 116.434 28.4939C115.607 37.1907 107.987 43.7863 98.6582 43.7863C94.0697 43.7863 89.9626 42.0996 87.217 39.0852C84.664 36.2715 83.4659 32.4711 83.8538 28.3694C84.6787 19.7335 92.4144 12.9715 101.463 12.9715C106.119 12.972 110.209 14.6604 113.005 17.7357ZM138.22 35.6285L138.85 37.6334C139.32 39.1156 139.868 40.5004 140.505 41.331C140.912 41.8581 141.377 42.0539 142.268 42.2921L142.002 43.3419L137.815 43.3506C135.458 43.3506 134.741 42.3411 133.6 38.8654L131.873 33.4104C130.39 29.69 128.134 29.6585 126.858 29.6585H125.298C125.151 31.2581 124.471 38.5853 124.471 38.5853C124.442 38.9497 124.418 39.3038 124.418 39.6264C124.418 40.4988 124.56 41.0977 124.796 41.585C124.944 41.9157 125.315 42.0952 125.921 42.3014L125.731 43.3637L117.139 43.3424L116.966 42.3014C118.042 41.8967 118.849 41.3381 119.069 38.6903L121.031 18.1583C121.293 15.4855 120.882 14.9394 119.617 14.4379L119.823 13.4028H129.491C133.348 13.4028 135.094 13.8418 136.97 15.2918C138.505 16.5184 139.344 18.371 139.344 20.439C139.344 20.6837 139.332 20.9301 139.307 21.1831C139.014 24.3199 137.137 26.5918 134.483 27.7047C133.652 28.055 133.175 28.1725 132.42 28.3117C134.271 28.965 136.405 30.2339 137.358 33.0563L138.22 35.6285ZM126.605 16.136C126.547 16.7539 125.623 26.3231 125.551 27.0444H127.046C128.064 27.0444 133.121 26.7702 133.635 21.3044C133.656 21.0433 133.673 20.7904 133.673 20.5521C133.673 19.2853 133.34 18.2627 132.661 17.529C131.48 16.2263 129.527 16.1355 128.741 16.1355L126.605 16.136ZM98.483 69.3691L99.1218 71.3756C99.5985 72.8556 100.132 74.2464 100.779 75.083C101.182 75.6057 101.648 75.8015 102.539 76.0316L102.272 77.0873L98.0929 77.102C95.7265 77.102 95.0055 76.086 93.8667 72.612L92.1418 67.1553C90.6656 63.4371 88.4032 63.4072 87.1234 63.4072H85.5672C85.4198 65.0052 84.7342 72.3318 84.7342 72.3318C84.7026 72.6876 84.6858 73.0379 84.6858 73.3816C84.6858 74.2372 84.8207 74.8404 85.0574 75.3332C85.2174 75.6585 85.589 75.8374 86.1957 76.0441L86.0085 77.1129H77.4278L77.2444 76.0441C78.3092 75.646 79.1232 75.0955 79.3409 72.4308L81.2932 51.8983C81.5631 49.2326 81.1517 48.6821 79.8828 48.1844L80.0891 47.1477L89.7657 47.1455C93.6159 47.1455 95.3598 47.5878 97.2402 49.04C98.773 50.2606 99.6186 52.1132 99.6186 54.1833C99.6186 54.4319 99.6066 54.6723 99.5832 54.9296C99.2861 58.062 97.4073 60.3356 94.7525 61.4469C93.9217 61.8004 93.4494 61.9168 92.6947 62.0533C94.5479 62.7115 96.6738 63.9739 97.6282 66.8067L98.483 69.3691ZM86.8769 49.8842C86.8138 50.5037 85.9008 60.0691 85.829 60.792H87.3199C88.3276 60.792 93.3857 60.514 93.9086 55.0482C93.9298 54.7909 93.9429 54.5342 93.9429 54.2997C93.9429 53.0286 93.6012 52.0109 92.9286 51.275C91.7479 49.9718 89.7972 49.8836 89.0175 49.8836L86.8769 49.8842ZM169.954 29.9228C170.114 28.2366 170.553 27.6449 171.873 26.9595L171.638 25.9734L164.162 25.9625L163.94 26.9742C164.91 27.4251 165.391 27.9837 165.378 29.2951C165.378 29.5105 165.36 29.7395 165.336 29.9902C165.336 29.9902 164.662 37.7749 164.569 38.7991C164.467 38.8578 164.356 38.9193 164.356 38.9193C160.996 40.5363 159.887 40.8246 157.598 40.8246C154.431 40.8246 151.742 39.7455 149.931 37.7596C147.907 35.5274 147.086 32.2774 147.448 28.3966C148.113 21.3441 153.188 15.9728 159.258 15.9728C164.166 15.9728 167.921 19.411 168.503 24.0947L169.589 24.08L170.089 16.2269L169.829 16.0392C166.183 13.8934 163.012 12.972 159.231 12.972C149.938 12.972 142.541 19.4893 141.702 28.4053C141.276 32.7708 142.432 36.5793 144.966 39.3555C147.581 42.2394 151.644 43.8265 156.378 43.8265C160.793 43.8265 166.115 42.2791 169.616 39.9712L170.126 39.6253L169.835 39.288C169.639 39.0373 169.245 38.643 169.257 38.2535C169.262 38.1251 169.27 37.9902 169.283 37.8254C169.284 37.8249 169.954 29.9359 169.954 29.9228ZM51.6827 77.1766L51.7589 76.1453C52.6279 75.9299 53.0871 75.7178 53.3864 74.1371C53.4544 73.7868 53.5093 73.5111 53.5556 73.0194L55.6662 51.3511C55.7108 50.866 55.7315 50.4591 55.7315 50.105C55.7315 48.5244 55.2848 48.1447 54.4621 47.9277L54.5785 46.9584H64.2269C66.1922 46.9584 67.1858 47.0743 68.3535 47.3163C71.6851 48.0207 74.1843 50.773 74.1843 53.5094C74.1843 53.6884 74.1821 53.8657 74.1609 54.0446C73.9242 56.3824 72.541 58.4879 70.5931 59.6916C69.8509 60.1534 69.3911 60.3405 68.7626 60.575C69.2284 60.6653 69.4711 60.7371 69.8884 60.8741C73.3213 61.9576 75.3628 64.7066 75.3628 68.1551C75.3628 68.4205 75.3519 68.6712 75.3247 68.9372C75.1392 70.8638 74.3595 72.4423 72.9143 73.956C71.9762 74.9323 70.8798 75.6487 69.6528 76.167C67.9367 76.9263 66.27 77.1766 63.5168 77.1766H51.6827ZM59.9778 62.1583C59.9229 62.7088 58.8858 73.7874 58.8205 74.445H62.816C67.1221 74.445 70.019 72.179 70.3694 68.5217C70.3901 68.3003 70.3966 68.0773 70.3966 67.8429C70.3966 66.4515 69.9543 65.225 69.1 64.2851C67.8605 62.9231 65.8402 62.1583 63.2845 62.1583H59.9778ZM68.8954 54.6734C68.9079 54.513 68.9145 54.3427 68.9145 54.1861C68.9145 53.0433 68.5281 51.9941 67.8012 51.195C66.8822 50.1855 65.5066 49.6334 63.9189 49.6334H60.7581C60.7091 50.1768 59.8832 58.8676 59.826 59.517H62.9482C66.177 59.517 68.619 57.5317 68.8954 54.6734ZM152.419 50.2067C152.6 50.8997 153.606 54.3656 153.606 54.3656C153.606 54.3656 155.322 50.8203 155.628 50.1034C155.991 49.2521 155.671 48.5331 154.022 48.5331C152.366 48.5331 152.238 49.5214 152.419 50.2067ZM136.094 51.6911C135.576 50.3775 135.378 49.4588 133.86 48.5184L133.771 48.4488L134.243 47.2222H142.165L142.218 48.5902C141.263 48.8072 141.193 49.2391 141.156 49.6253C141.131 49.9522 141.784 51.7792 142.037 52.6207C142.037 52.6207 146.085 65.5459 146.764 67.6829C147.642 65.9397 148.814 63.7939 150.058 61.3947C149.644 60.0376 147.113 51.5894 147.113 51.5894C146.524 49.6416 145.862 49.0939 144.89 48.5097L145.39 47.182L161.314 47.1678L161.445 48.5336C160.415 48.928 159.532 49.8744 158.623 51.5752C158.623 51.5752 155.085 58.5478 154.889 58.928C154.992 59.2777 156.802 64.9416 157.406 66.9247C159.336 62.7387 164.856 50.7664 164.856 50.7555C165.227 49.9712 165.208 49.9674 165.235 49.6786C165.297 49.0335 165.084 48.8121 163.971 48.5907L164.228 47.1684L178.971 47.1771C178.971 47.1771 192.698 64.8872 193.818 66.3748C194.157 62.7915 195.136 52.229 195.136 52.229C195.157 51.9108 195.174 51.5839 195.174 51.2554C195.174 50.4042 195.136 49.6617 194.954 49.2402C194.786 48.8361 194.533 48.5761 193.711 48.2094L193.917 47.1825H200.462L200.606 48.2595C198.957 48.7485 198.512 49.2924 198.219 52.2584L195.731 78.2122C187.49 67.5736 178.116 55.3566 176.783 53.5801C176.545 55.9854 175.931 62.8524 175.001 72.4602C174.919 73.2946 174.898 73.4485 174.898 73.8641C174.898 74.5108 174.953 74.823 175.139 75.2086C175.349 75.5927 175.594 75.795 176.319 76.1241L176.1 77.1417L169.894 77.1211L169.701 76.092C171.42 75.3778 171.698 74.7305 171.947 72.0974L173.815 52.4254C174.085 49.4909 172.567 48.625 171.316 48.625C170.058 48.625 168.908 49.6427 167.776 52.1132L155.736 78.0419C155.736 78.0419 152.256 67.7678 151.451 65.69C150.414 67.7324 144.446 78.0419 144.446 78.0419L136.094 51.6911ZM175.185 28.3525C175.111 29.1194 174.23 38.538 174.23 38.538C173.969 41.0841 173.517 41.6846 172.08 42.2769L172.277 43.2717H191.153L192.499 39.2184L191.613 38.687C191.048 39.3511 190.441 39.6465 189.816 39.8532C188.729 40.2035 187.919 40.346 186.03 40.346H179.438C179.51 39.5916 180.475 29.1619 180.535 28.5151H184.875C186.325 28.5151 186.848 28.6413 187.274 28.848C187.653 28.9807 188.083 29.4632 188.202 29.9777L189.229 29.8385L189.779 24.297L188.729 24.1556C188.422 24.7349 188.311 24.9378 187.653 25.2288C187.101 25.5491 186.599 25.6057 185.157 25.6057H180.817C180.889 24.8785 181.64 16.9046 181.703 16.2361H188.216C189.218 16.2361 190.264 16.4091 190.799 16.6897C191.198 16.8921 191.4 17.1782 191.613 17.9375L192.666 17.8298L193.089 13.3533H175.141L174.741 14.3547C176.071 14.9492 176.406 15.5981 176.166 18.1469L175.424 25.8108L175.185 28.3525ZM116.783 74.6761C122.785 74.6761 127.617 69.3941 128.301 62.2296C128.672 58.2981 127.727 54.8627 125.636 52.5608C123.966 50.7376 121.709 49.6862 119.09 49.6862C113.053 49.6862 108.358 54.8203 107.683 62.049C107.295 66.0833 108.227 69.5671 110.311 71.8673C111.934 73.6547 114.181 74.6761 116.783 74.6761ZM130.895 51.5219C133.498 54.3612 134.715 58.1915 134.319 62.278C133.498 70.9748 125.884 77.5682 116.556 77.5682C111.959 77.5682 107.853 75.8777 105.11 72.8638C102.559 70.0648 101.357 66.2535 101.753 62.1518C102.567 53.5181 110.311 46.7539 119.369 46.7539C124.004 46.7545 128.111 48.4488 130.895 51.5219ZM65.8484 28.5108C65.7765 29.2799 64.8929 38.5358 64.8929 38.5358C64.6377 41.0841 64.1931 41.6824 62.755 42.2791L62.9547 43.2717H81.8291L83.166 39.2184L82.2742 38.6854C81.7192 39.3517 81.0995 39.647 80.4754 39.8515C79.4018 40.2056 78.5856 40.3465 76.7052 40.3465H70.0985C70.1703 39.5899 71.1486 29.1608 71.203 28.5157H75.5364C76.9848 28.5157 77.5121 28.6402 77.9512 28.8486C78.3223 28.9791 78.7462 29.4659 78.8642 29.9783L79.8997 29.8412L80.4389 24.2976L79.4018 24.1561C79.0857 24.7376 78.9676 24.9383 78.3223 25.2271C77.7618 25.5497 77.2553 25.6062 75.8215 25.6062H71.4903C71.5621 24.8812 72.3087 16.9051 72.3674 16.2366H78.8789C79.891 16.2366 80.9286 16.4096 81.4766 16.6924C81.877 16.8926 82.0691 17.1793 82.2737 17.938L83.3364 17.8303L83.7619 13.3539H65.8119L65.4005 14.3574C66.7331 14.9497 67.0699 15.5964 66.8256 18.1496L66.1215 25.6345L54.6384 25.622L54.4017 26.6865C55.4334 27.1608 55.941 27.7531 55.922 29.127C55.922 29.3549 55.9095 29.5948 55.8822 29.8564C55.8822 29.8586 55.1444 38.254 55.0432 39.325C54.929 39.3903 54.8152 39.4512 54.8152 39.4512C51.2937 41.1564 50.1325 41.4577 47.7264 41.4577C44.397 41.4577 41.5817 40.3193 39.68 38.2345C37.5525 35.8967 36.6813 31.6372 37.0649 27.5627C37.7739 20.1638 43.096 14.5173 49.4682 14.5173C54.6085 14.5173 58.5479 18.3286 59.1676 22.7697L60.3016 22.7572L60.8457 14.7898L60.5611 14.5896C56.7322 12.3384 53.4152 11.3713 49.4366 11.3713C39.6909 11.3713 31.9208 18.2067 31.0263 27.5807C30.5965 32.1589 31.8049 37.0003 34.4597 39.9157C37.2113 42.9421 41.4854 44.6076 46.4445 44.6076C51.0711 44.6076 56.6582 42.9829 60.3402 40.5586L60.8887 40.1986L60.5807 39.8401C60.362 39.5807 59.9506 39.1635 59.9631 38.7545C59.9653 38.6239 59.9719 38.4787 59.9904 38.3035C59.9904 38.3035 60.7369 29.8156 60.7369 29.7982C60.7369 28.3253 64.4331 28.5108 65.8484 28.5108ZM133.492 87.0411C133.357 88.4749 133.753 89.777 134.652 90.7697C135.621 91.8276 137.119 92.458 138.766 92.458C140.206 92.458 141.553 92.123 142.762 91.4714L142.842 91.4273L142.846 91.3512C143.258 89.0645 143.258 89.0645 143.088 89.0036L142.951 88.9568L142.886 89.0792C141.732 91.0732 140.076 91.2886 139.401 91.2886C138.287 91.2886 137.389 90.9492 136.784 90.2579C136.06 89.4817 135.731 88.2383 135.868 86.86C136.098 84.377 137.819 82.7072 140.164 82.7072C141.003 82.7072 142.53 82.9878 143.185 84.897L143.23 85.0319L143.386 85.0069C143.542 84.971 143.542 84.971 143.603 82.5151L143.607 82.4123L143.51 82.3639C142.38 81.8157 141.252 81.5546 139.974 81.5546C136.052 81.5546 133.753 84.3134 133.492 87.0411ZM151.588 82.6821C149.581 82.6821 148.105 84.2883 147.839 86.7713C147.809 87.0476 147.799 87.294 147.799 87.5241C147.799 89.0117 148.282 89.8701 148.733 90.359C149.252 90.947 149.967 91.2549 150.767 91.2549C152.756 91.2549 154.209 89.634 154.445 87.1298C154.608 85.6014 154.317 84.3242 153.613 83.5399C153.096 82.9726 152.406 82.6821 151.588 82.6821ZM145.395 86.9084C145.692 84.2802 148.037 81.5062 151.816 81.5546C153.351 81.5714 154.84 82.2377 155.809 83.3017C156.686 84.3095 157.087 85.6144 156.912 87.0792C156.505 90.6457 153.395 92.4836 150.551 92.4564C148.944 92.4308 147.472 91.782 146.51 90.711C145.629 89.6862 145.233 88.3357 145.395 86.9084ZM162.563 81.7248L162.633 82.0517C162.422 82.1616 162.3 82.3362 162.279 82.5848C162.279 82.5848 161.477 90.7953 161.444 91.1216C161.507 91.1216 161.569 91.1303 161.569 91.1303C161.569 91.1303 162.929 91.1853 162.954 91.1853C164.603 91.1222 165.046 91.1053 165.552 90.3144L165.855 90.4684L165.307 92.3085H158.855L158.775 91.969C159.024 91.851 159.146 91.6781 159.172 91.4398L160.02 82.5576C160.041 82.3063 159.959 82.1551 159.75 82.0512L159.826 81.7243L162.563 81.7248ZM168.866 81.7248L168.794 82.0517C169.022 82.1551 169.102 82.3068 169.081 82.5619L168.216 91.4398C168.186 91.6819 168.065 91.851 167.816 91.969L167.891 92.3085H174.369L174.902 90.4684L174.601 90.3144C174.078 91.1135 173.646 91.1216 171.99 91.1853C171.965 91.1853 170.601 91.1303 170.601 91.1303C170.601 91.1303 170.544 91.1216 170.489 91.1216C170.524 90.7947 171.316 82.5886 171.316 82.5886C171.349 82.3291 171.459 82.1611 171.683 82.0512L171.607 81.7243L168.866 81.7248ZM183.982 81.7248H177.929L177.856 82.0517C178.072 82.1681 178.173 82.3324 178.152 82.5581L177.287 91.4404C177.262 91.7101 177.121 91.8304 176.86 91.9778L176.305 92.3085H183.554L184.066 90.4684L183.769 90.3101C183.204 91.1423 182.692 91.1575 181.513 91.1847H181.344C180.66 91.2097 179.929 91.17 179.577 91.126C179.611 90.835 179.948 87.2957 179.974 87.0259H182.095C182.217 87.0259 182.385 87.1885 182.423 87.3338L182.756 87.3147L182.921 85.7129L182.584 85.6226C182.52 85.7635 182.293 85.9429 182.16 85.9429H180.074C180.102 85.6367 180.346 83.0759 180.37 82.8148C180.642 82.8192 182.775 82.8399 182.775 82.8399C183.322 82.872 183.562 82.9813 183.762 83.3038L184.032 83.7575L184.158 81.7254H183.982V81.7248ZM186.129 87.0411C185.997 88.4706 186.41 89.7711 187.293 90.7594C188.282 91.8216 189.8 92.4586 191.467 92.4586C192.744 92.4586 194.954 92.0158 196.249 91.3348L196.457 91.232L196.268 91.0596C196.228 91.0194 196.135 90.817 196.151 90.6022L196.373 88.359C196.392 88.1039 196.519 87.9293 196.754 87.8032L197.303 87.4844H193.372L193.886 87.7988C194.059 87.8978 194.133 88.0305 194.133 88.2329C194.133 88.2606 194.129 88.2894 194.129 88.3259C194.129 88.3259 193.903 90.6702 193.886 90.8529C193.245 91.2217 192.473 91.2891 192.077 91.2891C190.943 91.2891 190.074 90.9519 189.446 90.2649C188.75 89.4931 188.413 88.2454 188.548 86.8605C188.78 84.3775 190.507 82.7077 192.824 82.7077C193.077 82.7077 195.232 82.7708 195.837 84.9465L196.16 84.9106L196.284 82.4085L196.181 82.3623C194.975 81.8162 193.847 81.5551 192.656 81.5551C188.727 81.5546 186.414 84.3134 186.129 87.0411ZM205.819 81.7248H199.744L199.668 82.0517C199.896 82.1681 200.001 82.3302 199.98 82.5619L199.111 91.4398C199.088 91.7118 198.951 91.8342 198.69 91.9772L198.104 92.3079H205.385L205.899 90.4678L205.602 90.3095C205.02 91.1417 204.522 91.157 203.337 91.1842H203.16C202.492 91.2092 201.76 91.1651 201.395 91.1254C201.423 90.8344 201.777 87.2951 201.802 87.0254H203.925C204.048 87.0254 204.221 87.188 204.26 87.3332L204.585 87.3142L204.735 85.7123L204.429 85.6199C204.353 85.7629 204.123 85.9424 203.99 85.9424H201.907C201.939 85.6362 202.176 83.0754 202.211 82.8143C202.472 82.8187 204.598 82.8393 204.598 82.8393C205.146 82.8714 205.391 82.9808 205.602 83.3033L205.872 83.7482L206 81.7243L205.819 81.7248Z" fill="white"/>
</svg>
