<svg width="201" height="184" viewBox="0 0 201 184" fill="none" xmlns="http://www.w3.org/2000/svg">
<path d="M200.908 177.506V184H0.162958V177.478H3.25513V154.231C0.40899 153.538 -0.0215655 151.398 0.00080099 148.693C0.0958587 136.281 0.0790838 123.87 0.0231675 111.458C0.00080099 107.099 1.57764 103.69 5.4806 101.617C9.41711 99.5215 13.1355 100.416 16.7254 102.701C22.2387 106.222 27.7856 109.698 33.3605 113.123C34.0818 113.565 35.038 113.788 35.8935 113.811C39.0304 113.889 42.1729 113.839 45.3098 113.844C49.3973 113.844 50.2807 114.744 50.2807 118.919C50.2807 120.506 50.2807 122.093 50.2807 123.78H57.4884C58.288 119.058 59.0876 114.336 59.8872 109.608C60.027 108.787 60.1556 107.96 60.3065 107.138C60.7427 104.775 62.3475 103.472 64.3101 103.864C66.2281 104.249 67.2905 105.959 66.9214 108.189C66.1945 112.587 65.4341 116.979 64.696 121.377C64.5674 122.126 64.5003 122.886 64.3884 123.775H74.1682C74.9846 118.164 75.8121 112.593 76.6117 107.015C77.1262 103.433 79.005 100.829 82.2145 99.1974C85.3794 97.588 88.5666 96.0121 91.7427 94.425C91.9943 94.302 92.2459 94.1009 92.5031 94.0953C98.5589 93.9556 104.71 92.5585 110.592 95.0788C113.338 96.2579 115.96 97.7333 118.633 99.08C121.988 100.773 123.945 103.45 124.465 107.205C125.231 112.721 126.064 118.226 126.88 123.792H136.727C135.872 118.645 135.033 113.638 134.217 108.625C134.116 108.01 134.004 107.373 134.071 106.758C134.25 105.087 135.704 103.785 137.354 103.847C139.316 103.92 140.395 105.06 140.714 106.943C141.553 111.888 142.375 116.834 143.208 121.78C143.32 122.456 143.465 123.121 143.599 123.831H150.757C150.757 121.925 150.746 120.008 150.757 118.086C150.779 115.046 151.914 113.895 154.889 113.856C154.956 113.856 155.029 113.861 155.096 113.856C160.089 113.28 165.329 115.241 170.07 111.855C174.253 108.865 178.939 106.574 183.099 103.562C187.477 100.399 191.973 99.488 195.92 101.813C199.091 103.685 200.925 106.524 200.953 110.212C201.037 121.366 200.981 132.526 200.992 143.68C200.992 145.329 200.204 146.379 198.789 147.179C198.263 147.475 197.693 148.268 197.687 148.833C197.631 158.176 197.659 167.52 197.676 176.864C197.676 176.987 197.766 177.115 197.872 177.383C198.767 177.423 199.723 177.467 200.903 177.518L200.908 177.506ZM120.646 144.055C120.635 147.631 119.175 150.28 116.804 152.566C115.625 153.7 113.975 154.963 113.746 156.36C112.627 163.284 111.912 170.275 111.039 177.316H140.558V144.055H120.64H120.646ZM90.0261 177.35C89.2097 170.935 88.3038 164.804 87.7111 158.635C87.4931 156.366 86.7046 154.706 85.0215 153.275C82.2145 150.889 80.3022 147.995 80.3917 144.083H60.4743V177.344H90.0261V177.35ZM47.0264 137.125H154.006V130.688H47.0264V137.125ZM39.0695 177.378C36.38 168.437 33.8078 159.769 31.1238 151.141C30.8275 150.196 30.0446 149.19 29.2003 148.66C24.7773 145.882 20.2761 143.222 15.7692 140.573C14.2539 139.685 13.4095 138.534 13.4263 136.706C13.471 131.475 13.4039 126.245 13.4543 121.02C13.4822 117.806 15.8083 116.376 18.716 117.767C22.3561 119.511 25.9516 121.355 29.5749 123.143C30.1285 123.417 30.7156 123.819 31.2916 123.831C35.3175 123.892 39.3491 123.864 43.459 123.864V120.534C40.8421 120.534 38.337 120.427 35.8487 120.562C33.5841 120.684 31.6606 120.075 29.7651 118.851C24.0951 115.186 18.3973 111.564 12.5987 108.116C11.514 107.474 9.64636 107.222 8.58395 107.725C7.65015 108.167 6.83377 109.916 6.82259 111.095C6.69398 122.948 6.76667 134.801 6.71076 146.653C6.70517 147.978 7.20841 148.43 8.37147 148.799C13.2138 150.342 17.9891 152.108 22.8594 153.549C25.3756 154.293 26.712 155.701 27.2712 158.221C27.8527 160.87 28.6971 163.457 29.4519 166.067C30.5423 169.856 31.6494 173.634 32.7342 177.372H39.0695V177.378ZM176.037 177.177L176.428 177.003C176.299 176.4 176.182 175.796 176.037 175.204C174.432 168.722 172.81 162.245 171.211 155.757C170.484 152.8 170.998 151.767 173.822 150.548C180.085 147.849 186.347 145.144 192.638 142.512C193.801 142.026 194.349 141.495 194.338 140.121C194.271 130.503 194.293 120.891 194.31 111.274C194.31 109.703 194.053 108.066 192.47 107.664C191.218 107.345 189.624 107.613 188.4 108.139C187.035 108.725 185.973 109.983 184.676 110.782C179.984 113.654 175.293 116.532 170.501 119.231C169.181 119.975 167.537 120.377 166.005 120.483C163.187 120.679 160.352 120.539 157.456 120.539C157.456 121.333 157.456 121.819 157.456 122.305C157.456 122.791 157.456 123.238 157.456 123.853C164.132 123.814 170.719 124.904 176.545 120.707C178.217 119.5 180.241 118.779 182.126 117.874C185.279 116.359 187.555 117.751 187.589 121.227C187.622 124.987 187.477 128.76 187.639 132.515C187.745 134.923 186.772 136.393 184.782 137.606C177.77 141.892 170.82 146.279 163.852 150.632C163.226 151.023 162.628 151.448 161.968 151.895C166.721 160.445 171.379 168.817 176.031 177.188L176.037 177.177ZM104.262 177.35C104.838 172.734 105.493 168.191 105.957 163.636C106.605 157.338 106.711 150.861 112.924 146.894C112.98 146.86 113.03 146.793 113.052 146.732C113.393 145.899 113.723 145.061 114.12 144.072H86.7773C87.3477 145.223 87.6608 146.212 88.2535 146.977C89.0643 148.011 90.0205 148.967 91.0437 149.8C93.0008 151.398 93.9737 153.376 94.1415 155.908C94.3204 158.612 94.751 161.306 95.0921 163.999C95.6512 168.459 96.2272 172.918 96.7975 177.344H104.262V177.35ZM87.124 123.775C87.124 119.628 87.124 115.661 87.124 111.698C87.1296 108.172 88.1752 107.15 91.7706 107.144C96.9317 107.144 102.087 107.144 107.248 107.144C113.651 107.144 113.919 107.412 113.919 113.861V123.741H120.075C119.343 118.566 118.605 113.537 117.934 108.502C117.699 106.753 116.765 105.725 115.267 104.808C109.709 101.399 103.826 99.5439 97.2449 100.438C96.764 100.505 96.2607 100.388 95.7854 100.46C95.0473 100.578 94.2589 100.662 93.5935 100.974C90.8928 102.265 88.1473 103.495 85.6031 105.054C84.563 105.691 83.5062 107.015 83.2937 108.183C82.3543 113.308 81.7225 118.488 80.9564 123.775H87.1296H87.124ZM39.8691 156.696L40.0872 156.712V130.252C32.8293 131.699 26.3094 130.05 20.1419 125.686C20.1419 128.821 20.2201 131.325 20.1083 133.823C20.0524 135.069 20.578 135.678 21.5677 136.259C25.8341 138.757 30.1285 141.227 34.2719 143.921C35.4406 144.681 36.4582 146.05 36.9615 147.363C38.1245 150.403 38.9241 153.577 39.8691 156.696ZM190.899 150.504C186.784 152.27 182.953 153.885 179.168 155.589C178.782 155.762 178.351 156.578 178.447 156.975C180.085 163.776 181.801 170.56 183.49 177.283H190.899V150.498V150.504ZM25.7055 177.355C24.0895 171.683 22.5239 166.151 20.9135 160.624C20.8184 160.289 20.4326 159.914 20.0971 159.797C16.8316 158.663 13.5493 157.578 10.2055 156.461V177.355H25.7055ZM153.989 177.344V144.105H147.553V177.344H153.989ZM53.5407 144.122H47.0935V177.328H53.5407V144.122ZM160.961 130.509V144.524C167.492 140.45 173.805 136.527 180.09 132.554C180.476 132.308 180.834 131.71 180.857 131.258C180.946 129.615 180.89 127.96 180.89 126.077C177.585 127.631 174.644 129.648 171.423 130.347C168.113 131.068 164.518 130.509 160.956 130.509H160.961ZM107.136 113.939H93.9402V123.747H107.136V113.939ZM161.258 164.396L160.928 164.497V177.311H168.426C165.96 172.868 163.612 168.632 161.258 164.396Z" fill="#A2ECA2"/>
<path d="M127.378 45.3037C123.626 47.7905 120.143 50.0873 116.676 52.4121C115.351 53.3006 114.037 54.0327 112.421 53.1889C110.737 52.3115 110.503 50.7803 110.553 49.0926C110.592 47.7011 110.491 46.2985 110.575 44.9126C110.76 41.9005 110.765 39.3075 107.366 37.536C104.833 36.2172 103.91 33.2386 103.888 30.3103C103.837 23.4814 103.798 16.6525 103.888 9.82357C103.96 4.3638 108.333 0.0775627 113.846 0.0440329C125.002 -0.0174385 136.157 -0.0118502 147.312 0.0440329C153.055 0.0719744 157.316 4.36938 157.439 10.103C157.461 11.1312 157.439 12.1595 157.439 13.4169C161.565 13.4169 165.519 13.4169 169.472 13.4169C176.892 13.4169 180.879 17.3678 180.884 24.7164C180.884 30.64 180.834 36.5636 180.901 42.4872C180.952 47.0138 179.19 50.4003 175.187 52.6356C174.683 52.915 174.253 53.7756 174.23 54.3848C174.13 57.1677 174.152 59.9563 174.197 62.7449C174.225 64.399 173.85 65.7849 172.273 66.6008C170.741 67.3943 169.461 66.7405 168.197 65.8967C162.522 62.0966 156.863 58.2854 151.137 54.5636C150.27 53.9992 149.107 53.675 148.067 53.6303C145.283 53.5018 142.487 53.4627 139.702 53.6136C133.613 53.9433 129.274 51.708 127.361 45.3093L127.378 45.3037ZM167.297 57.2124C167.42 56.771 167.481 56.6368 167.481 56.5083C167.493 54.6977 167.481 52.8815 167.504 51.0709C167.526 48.2823 168.309 47.3491 171.054 46.8741C172.961 46.5444 174.147 45.4658 174.163 43.5323C174.225 36.8375 174.214 30.1483 174.169 23.4535C174.158 21.7099 173.151 20.3017 171.468 20.2346C166.838 20.0502 162.192 20.1731 157.45 20.1731C157.45 23.5373 157.472 26.6667 157.45 29.8018C157.394 35.9154 153.144 40.1402 146.999 40.1904C143.37 40.2184 139.741 40.1457 136.118 40.2407C135.425 40.2575 134.34 40.7046 134.122 41.2355C132.964 44.0967 134.882 46.8517 137.952 46.8797C141.788 46.9188 145.629 46.7735 149.46 46.9467C150.902 47.0138 152.485 47.4776 153.704 48.2432C158.238 51.0821 162.65 54.1221 167.297 57.2124ZM150.751 13.4113C150.751 12.2657 150.774 11.3659 150.751 10.4718C150.673 8.00737 149.454 6.73324 146.982 6.72765C136.107 6.69971 125.237 6.69971 114.361 6.72765C111.878 6.73324 110.592 7.9962 110.581 10.4495C110.542 16.8593 110.547 23.269 110.581 29.6788C110.592 32.0092 111.582 33.0989 113.863 33.4957C116.312 33.9204 117.224 34.943 117.257 37.4186C117.285 39.4751 117.263 41.526 117.263 43.9849C120.383 41.9061 123.112 40.006 125.924 38.2513C127.02 37.5695 127.361 36.7816 127.333 35.5354C127.261 31.7074 127.294 27.8738 127.311 24.0402C127.339 17.664 131.555 13.4504 137.935 13.4224C142.107 13.4057 146.283 13.4224 150.751 13.4224V13.4113ZM150.734 20.1117C146.11 20.1117 141.799 20.0949 137.488 20.1172C135.743 20.1284 134.284 21.0225 134.178 22.6935C133.943 26.2588 134.105 29.8465 134.105 33.4901C138.651 33.4901 142.962 33.5292 147.268 33.4733C149.292 33.4454 150.645 32.2215 150.706 30.288C150.807 26.9685 150.734 23.6491 150.734 20.1117Z" fill="#A2ECA2"/>
<path d="M16.7925 50.3556C9.87562 49.3106 6.7499 45.6558 6.74431 38.8325C6.74431 32.7692 6.72753 26.7059 6.74431 20.6425C6.76667 14.283 11.0051 10.075 17.4131 10.0695C30.3801 10.0527 43.3471 10.0527 56.3141 10.0695C62.8395 10.075 66.9997 14.2663 67.0221 20.8158C67.0389 27.0859 67.0445 33.3615 67.0221 39.6316C66.9941 46.0135 62.7836 50.1991 56.37 50.227C51.9806 50.2494 47.5856 50.16 43.1961 50.2773C42.0275 50.3109 40.7191 50.6797 39.7461 51.3056C34.065 54.9659 28.4622 58.738 22.8482 62.4934C21.5174 63.3819 20.1922 64.0749 18.593 63.1919C17.0273 62.3257 16.7589 60.8895 16.7869 59.2633C16.8316 56.3407 16.7981 53.4236 16.7981 50.35L16.7925 50.3556ZM23.4912 54.0215C28.2777 50.8306 32.6224 47.8129 37.1069 45.0299C38.4377 44.2028 40.1599 43.6664 41.7256 43.6105C46.5344 43.4317 51.3487 43.5602 56.1631 43.5378C59.1491 43.5267 60.3233 42.3419 60.3289 39.3354C60.3457 33.1995 60.3457 27.0635 60.3289 20.9275C60.3177 17.9378 59.1379 16.7643 56.1296 16.7643C43.2968 16.7531 30.4584 16.7531 17.6256 16.7643C14.6229 16.7643 13.4599 17.9434 13.4487 20.9499C13.4319 26.3203 13.5493 31.6906 13.4151 37.0554C13.2865 42.1519 13.7618 43.9402 19.7281 43.5825C22.1828 43.4373 23.4297 44.8343 23.4801 47.31C23.5248 49.3944 23.4912 51.4788 23.4912 54.0215Z" fill="#A2ECA2"/>
<path d="M187.494 97.1018C180.113 97.0627 174.13 90.9602 174.208 83.5613C174.286 76.1792 180.381 70.2444 187.807 70.3282C195.087 70.4064 201.014 76.4474 200.986 83.7625C200.964 91.1558 194.908 97.1409 187.494 97.1018ZM194.282 83.7569C194.304 80.1077 191.346 77.0901 187.689 77.0286C184.044 76.9671 180.974 79.9233 180.907 83.5613C180.84 87.3111 183.865 90.3958 187.6 90.3958C191.251 90.3958 194.26 87.4061 194.282 83.7569Z" fill="#A2ECA2"/>
<path d="M113.908 77.0509C113.897 84.4387 107.819 90.4573 100.432 90.4014C93.0399 90.3455 87.0793 84.2766 87.1296 76.8665C87.1799 69.5794 93.1797 63.639 100.505 63.6278C107.903 63.6166 113.925 69.6408 113.908 77.0509ZM100.488 83.6954C104.139 83.7122 107.159 80.7392 107.204 77.09C107.248 73.3571 104.184 70.2947 100.438 70.3226C96.7975 70.3505 93.806 73.385 93.8284 77.0286C93.8507 80.6889 96.8311 83.6731 100.488 83.6898V83.6954Z" fill="#A2ECA2"/>
<path d="M26.8294 83.6563C26.8574 91.0552 20.824 97.113 13.4431 97.1018C6.04535 97.0906 0.0343508 91.0608 0.045534 83.6563C0.0567173 76.358 6.02299 70.3729 13.3312 70.3226C20.7402 70.2723 26.8015 76.263 26.8294 83.6563ZM20.1251 83.6284C20.0803 79.9792 17.072 77.023 13.4095 77.023C9.76938 77.023 6.75549 80.0407 6.75549 83.6787C6.75549 87.4228 9.83648 90.4573 13.5717 90.3902C17.2174 90.3232 20.1698 87.2775 20.1307 83.6284H20.1251Z" fill="#A2ECA2"/>
<path d="M47.0264 33.3839V26.9517H53.5015V33.3839H47.0264Z" fill="#A2ECA2"/>
<path d="M33.6568 26.907H40.0704V33.3559H33.6568V26.907Z" fill="#A2ECA2"/>
<path d="M20.2593 26.907H26.6729V33.3559H20.2593V26.907Z" fill="#A2ECA2"/>
</svg>
