<svg width="224" height="19" viewBox="0 0 224 19" fill="none" xmlns="http://www.w3.org/2000/svg">
<g clip-path="url(#clip0_8_67)">
<mask id="mask0_8_67" style="mask-type:luminance" maskUnits="userSpaceOnUse" x="0" y="0" width="224" height="19">
<path d="M224 0.558823H0V18.4412H224V0.558823Z" fill="white"/>
</mask>
<g mask="url(#mask0_8_67)">
<mask id="mask1_8_67" style="mask-type:luminance" maskUnits="userSpaceOnUse" x="-3" y="-6" width="229" height="32">
<path d="M225.994 -5.90094H-2.48608V25.3932H225.994V-5.90094Z" fill="white"/>
</mask>
<g mask="url(#mask1_8_67)">
<mask id="mask2_8_67" style="mask-type:luminance" maskUnits="userSpaceOnUse" x="-3" y="-6" width="229" height="32">
<path d="M225.994 -5.90094H-2.48608V25.3932H225.994V-5.90094Z" fill="white"/>
</mask>
<g mask="url(#mask2_8_67)">
<path d="M0 12.3698H3.64124C3.64124 14.6436 5.41583 15.524 7.42436 15.524C8.74471 15.524 10.7557 15.1403 10.7557 13.3956C10.7557 11.5565 8.18969 11.246 5.67964 10.5766C3.14097 9.90603 0.577424 8.92871 0.577424 5.72355C0.577424 2.23897 3.88143 0.563744 6.97511 0.563744C10.5429 0.563744 13.8196 2.11603 13.8196 6.05884H10.1808C10.0626 4.00237 8.60036 3.47832 6.80338 3.47832C5.60498 3.47832 4.21742 3.97505 4.21742 5.41433C4.21742 6.72695 5.03129 6.89832 9.31964 7.99733C10.5641 8.30903 14.4007 9.09636 14.4007 12.9646C14.4007 16.099 11.9305 18.4386 7.28623 18.4386C3.49938 18.4386 -0.0435543 16.5759 0.00124566 12.3673" fill="#A2ECA2"/>
<path d="M15.8845 9.57321C15.8845 4.50655 18.9957 0.563744 24.2908 0.563744C28.0528 0.563744 31.2161 2.76054 31.6678 6.70583H28.0253C27.7864 5.00825 26.1587 3.71675 24.292 3.71675C20.9146 3.71675 19.6453 6.58786 19.6453 9.57321C19.6453 12.417 20.9146 15.2856 24.292 15.2856C26.5905 15.2856 27.8848 13.706 28.1722 11.4583H31.8147C31.4301 15.7154 28.4833 18.4386 24.292 18.4386C18.9969 18.4386 15.8858 14.4933 15.8858 9.57073" fill="#A2ECA2"/>
<path d="M45.0567 0.964851H48.8212V18.035H45.0567V10.671H38.1364V18.035H34.3744V0.964851H38.1364V7.5155H45.0567V0.964851Z" fill="#A2ECA2"/>
<path d="M89.3987 0.964851H93.1607V14.882H101.496V18.035H89.3987V0.964851Z" fill="#A2ECA2"/>
<path d="M156.522 7.78126H164.811V10.6958H156.522V14.882H165.741V18.035H152.758V0.964851H165.551V4.12283H156.522V7.78126Z" fill="#A2ECA2"/>
<path d="M132.826 4.12283H124.564V8.06936H131.723V10.9839H124.564V18.035H120.804V0.964851H132.826V4.12283Z" fill="#A2ECA2"/>
<path d="M213.291 0.964851L220.434 12.417H220.478V0.964851H224V18.035H220.236L213.125 6.61269H213.073V18.035H209.554V0.964851H213.291Z" fill="#A2ECA2"/>
<path d="M206.252 6.58791H202.656C202.226 4.69909 200.812 3.7168 199.041 3.7168C195.661 3.7168 194.394 6.58791 194.394 9.57327C194.394 12.4171 195.661 15.2857 199.041 15.2857C201.485 15.2857 202.898 13.9669 203.111 11.6024H199.33V8.80583H206.509V18.0351H204.117L203.732 16.1016C202.418 17.7966 200.693 18.4412 199.041 18.4412C193.745 18.4412 190.632 14.4959 190.632 9.57327C190.632 4.50661 193.743 0.55883 199.041 0.55883C202.535 0.55883 205.843 2.71341 206.252 6.58791Z" fill="#A2ECA2"/>
<path d="M188.066 0.964851H184.307V18.035H188.066V0.964851Z" fill="#A2ECA2"/>
<path d="M181.023 6.05661H177.382C177.266 4.00263 175.803 3.47858 174.005 3.47858C172.809 3.47858 171.422 3.97531 171.422 5.41459C171.422 6.72721 172.232 6.89858 176.523 7.99388C177.769 8.3093 181.6 9.09662 181.6 12.9612C181.6 16.0956 179.135 18.4351 174.485 18.4351C170.703 18.4351 167.158 16.5725 167.205 12.3614H170.852C170.852 14.6339 172.623 15.5181 174.636 15.5181C175.954 15.5181 177.968 15.1344 177.968 13.3896C177.968 11.5504 175.402 11.2375 172.888 10.5682C170.348 9.90133 167.785 8.92276 167.785 5.7176C167.785 2.23303 171.089 0.552826 174.182 0.552826C177.753 0.552826 181.028 2.11008 181.028 6.05041" fill="#A2ECA2"/>
<path d="M101.425 9.57321C101.425 14.4958 104.536 18.4412 109.831 18.4412C115.126 18.4412 118.238 14.4958 118.238 9.57321C118.238 4.50655 115.127 0.563744 109.831 0.563744C104.534 0.563744 101.425 4.50655 101.425 9.57321ZM114.481 9.57321C114.481 12.417 113.211 15.2856 109.831 15.2856C106.451 15.2856 105.187 12.4145 105.187 9.57321C105.187 6.59283 106.453 3.71675 109.831 3.71675C113.209 3.71675 114.477 6.58786 114.477 9.57321" fill="#A2ECA2"/>
<path d="M51.3844 9.57321C51.3844 14.4958 54.4955 18.4412 59.7944 18.4412C65.0932 18.4412 68.2019 14.4958 68.2019 9.57321C68.2019 4.50655 65.0907 0.563744 59.7944 0.563744C54.498 0.563744 51.3844 4.50655 51.3844 9.57321ZM64.4424 9.57321C64.4424 12.417 63.1693 15.2856 59.7944 15.2856C56.4195 15.2856 55.1451 12.4145 55.1451 9.57321C55.1451 6.59283 56.4169 3.71675 59.7944 3.71675C63.1718 3.71675 64.4424 6.58786 64.4424 9.57321Z" fill="#A2ECA2"/>
<path d="M70.0209 9.57321C70.0209 14.4958 73.1319 18.4412 78.427 18.4412C83.7222 18.4412 86.837 14.4958 86.837 9.57321C86.837 4.50655 83.7259 0.563744 78.427 0.563744C73.1282 0.563744 70.0209 4.50655 70.0209 9.57321ZM83.075 9.57321C83.075 12.417 81.8019 15.2856 78.427 15.2856C75.0521 15.2856 73.7778 12.4145 73.7778 9.57321C73.7778 6.59283 75.0497 3.71675 78.427 3.71675C81.8045 3.71675 83.075 6.58786 83.075 9.57321Z" fill="#A2ECA2"/>
<path d="M135.011 18.0354H142.387C147.614 18.0354 150.152 14.3533 150.152 9.40711C150.152 3.74437 146.82 0.962669 142.387 0.962669H135.011V18.0354ZM141.456 4.12685C145.19 4.12685 146.39 6.32862 146.39 9.76724C146.39 13.5449 144.309 14.8861 142.127 14.8861H138.767V4.11816L141.456 4.12685Z" fill="#A2ECA2"/>
</g>
</g>
</g>
</g>
<defs>
<clipPath id="clip0_8_67">
<rect width="224" height="19" fill="white"/>
</clipPath>
</defs>
</svg>
